<?xml version="1.0" encoding="UTF-8"?>
<svg xmlns="http://www.w3.org/2000/svg" xmlns:xlink="http://www.w3.org/1999/xlink" width="15pt" height="15pt" viewBox="0 0 15 15" version="1.1">
<g id="surface1">
<path style=" stroke:none;fill-rule:nonzero;fill:rgb(46.666667%,50.588235%,57.254902%);fill-opacity:1;" d="M 5 8.125 L 10 8.125 L 10 6.875 L 5 6.875 Z M 5 5.625 L 10 5.625 L 10 4.375 L 5 4.375 Z M 8.125 10.625 L 10 10.625 L 10 9.375 L 8.125 9.375 Z M 11.945312 1.25 C 11.550781 1.253906 11.167969 1.378906 10.851562 1.605469 C 10.621094 1.789062 10.296875 1.789062 10.070312 1.605469 C 9.414062 1.136719 8.535156 1.136719 7.882812 1.605469 C 7.769531 1.691406 7.636719 1.738281 7.5 1.75 C 7.363281 1.742188 7.234375 1.695312 7.125 1.613281 C 6.804688 1.378906 6.421875 1.25 6.023438 1.25 C 5.632812 1.25 5.25 1.375 4.929688 1.605469 C 4.703125 1.789062 4.378906 1.789062 4.148438 1.605469 C 3.832031 1.378906 3.449219 1.253906 3.054688 1.25 L 2.5 1.25 L 2.5 13.75 L 3.054688 13.75 C 3.449219 13.746094 3.832031 13.621094 4.148438 13.394531 C 4.378906 13.210938 4.703125 13.210938 4.929688 13.394531 C 5.585938 13.863281 6.464844 13.863281 7.117188 13.394531 C 7.230469 13.308594 7.363281 13.261719 7.5 13.25 C 7.636719 13.257812 7.765625 13.304688 7.875 13.386719 C 8.191406 13.617188 8.570312 13.746094 8.960938 13.75 C 9.355469 13.75 9.738281 13.625 10.054688 13.394531 C 10.285156 13.210938 10.609375 13.210938 10.835938 13.394531 C 11.15625 13.621094 11.539062 13.746094 11.929688 13.75 L 12.5 13.75 L 12.5 1.25 Z M 11.25 12.1875 C 10.640625 11.90625 9.921875 11.972656 9.375 12.363281 C 9.261719 12.445312 9.128906 12.496094 8.988281 12.5 C 8.851562 12.496094 8.71875 12.449219 8.613281 12.363281 C 8.289062 12.125 7.898438 12 7.5 12 C 7.105469 12.007812 6.722656 12.132812 6.398438 12.363281 C 6.171875 12.542969 5.851562 12.542969 5.625 12.363281 C 5.078125 11.972656 4.359375 11.90625 3.75 12.1875 L 3.75 2.8125 C 3.996094 2.929688 4.265625 2.996094 4.539062 3 C 4.929688 2.992188 5.308594 2.863281 5.625 2.636719 C 5.742188 2.550781 5.878906 2.503906 6.023438 2.5 C 6.160156 2.503906 6.292969 2.550781 6.398438 2.636719 C 6.71875 2.871094 7.105469 3 7.5 3 C 7.894531 2.992188 8.277344 2.867188 8.601562 2.636719 C 8.828125 2.457031 9.148438 2.457031 9.375 2.636719 C 9.695312 2.867188 10.078125 2.992188 10.476562 3 C 10.742188 2.992188 11.007812 2.929688 11.25 2.8125 Z M 11.25 12.1875 "/>
</g>
</svg>
