<?xml version="1.0" encoding="UTF-8"?>
<svg xmlns="http://www.w3.org/2000/svg" xmlns:xlink="http://www.w3.org/1999/xlink" width="9pt" height="13pt" viewBox="0 0 9 13" version="1.1">
<g id="surface1">
<path style=" stroke:none;fill-rule:nonzero;fill:rgb(46.666667%,50.588235%,57.254902%);fill-opacity:1;" d="M 8.316406 0.00390625 L 0.683594 0.00390625 C 0.308594 0.00390625 0 0.292969 0 0.652344 L 0 12.347656 C 0 12.707031 0.308594 12.996094 0.683594 12.996094 L 8.316406 12.996094 C 8.691406 12.996094 9 12.707031 9 12.347656 L 9 0.652344 C 9 0.292969 8.691406 0.00390625 8.316406 0.00390625 Z M 0.34375 0.976562 C 0.34375 0.617188 0.648438 0.328125 1.027344 0.328125 L 4.3125 0.328125 L 4.3125 4.015625 L 0.34375 4.015625 Z M 8.65625 12.023438 C 8.65625 12.382812 8.351562 12.671875 7.972656 12.671875 L 1.027344 12.671875 C 0.648438 12.671875 0.34375 12.382812 0.34375 12.023438 L 0.34375 4.34375 L 8.65625 4.34375 Z M 8.65625 4.015625 L 4.65625 4.015625 L 4.65625 0.328125 L 7.972656 0.328125 C 8.351562 0.328125 8.65625 0.617188 8.65625 0.976562 Z M 1.027344 11.699219 L 1.027344 5.316406 C 1.027344 5.136719 1.179688 4.992188 1.367188 4.992188 L 7.632812 4.992188 C 7.820312 4.992188 7.972656 5.136719 7.972656 5.316406 L 7.972656 11.699219 C 7.972656 11.878906 7.820312 12.023438 7.632812 12.023438 L 1.367188 12.023438 C 1.179688 12.023438 1.027344 11.878906 1.027344 11.699219 Z M 7.972656 1.300781 L 7.972656 3.042969 C 7.972656 3.222656 7.820312 3.367188 7.632812 3.367188 L 5.683594 3.367188 C 5.492188 3.367188 5.339844 3.222656 5.339844 3.042969 L 5.339844 1.300781 C 5.339844 1.121094 5.492188 0.976562 5.683594 0.976562 L 7.632812 0.976562 C 7.820312 0.976562 7.972656 1.121094 7.972656 1.300781 Z M 3.628906 1.300781 L 3.628906 3.042969 C 3.628906 3.222656 3.476562 3.367188 3.289062 3.367188 L 1.367188 3.367188 C 1.179688 3.367188 1.027344 3.222656 1.027344 3.042969 L 1.027344 1.300781 C 1.027344 1.121094 1.179688 0.976562 1.367188 0.976562 L 3.289062 0.976562 C 3.476562 0.976562 3.628906 1.121094 3.628906 1.300781 Z M 3.628906 1.300781 "/>
</g>
</svg>
