<?xml version="1.0" encoding="UTF-8"?>
<svg xmlns="http://www.w3.org/2000/svg" xmlns:xlink="http://www.w3.org/1999/xlink" width="16pt" height="16pt" viewBox="0 0 16 16" version="1.1">
<g id="surface1">
<path style=" stroke:none;fill-rule:nonzero;fill:rgb(46.666667%,50.588235%,57.254902%);fill-opacity:1;" d="M 8 2.5 C 6.074219 2.5 4.5 4.074219 4.5 6 C 4.5 7.203125 5.117188 8.277344 6.046875 8.90625 C 4.261719 9.671875 3 11.441406 3 13.5 L 4 13.5 C 4 11.285156 5.785156 9.5 8 9.5 C 10.214844 9.5 12 11.285156 12 13.5 L 13 13.5 C 13 11.441406 11.738281 9.671875 9.953125 8.90625 C 10.882812 8.277344 11.5 7.203125 11.5 6 C 11.5 4.074219 9.925781 2.5 8 2.5 Z M 8 3.5 C 9.386719 3.5 10.5 4.613281 10.5 6 C 10.5 7.386719 9.386719 8.5 8 8.5 C 6.613281 8.5 5.5 7.386719 5.5 6 C 5.5 4.613281 6.613281 3.5 8 3.5 Z M 9 12.5 L 9 13.5 L 11 13.5 L 11 12.5 Z M 9 12.5 "/>
</g>
</svg>
