<?xml version="1.0" encoding="UTF-8"?>
<svg xmlns="http://www.w3.org/2000/svg" xmlns:xlink="http://www.w3.org/1999/xlink" width="16pt" height="16pt" viewBox="0 0 16 16" version="1.1">
<g id="surface1">
<path style=" stroke:none;fill-rule:nonzero;fill:rgb(46.666667%,50.588235%,57.254902%);fill-opacity:1;" d="M 8.308594 4.75 C 8.253906 4.628906 8.132812 4.550781 8 4.550781 C 7.867188 4.550781 7.746094 4.628906 7.691406 4.75 L 5.402344 9.875 C 5.328125 10.046875 5.402344 10.246094 5.574219 10.320312 C 5.617188 10.339844 5.664062 10.351562 5.710938 10.351562 C 5.839844 10.351562 5.964844 10.277344 6.019531 10.152344 L 8 5.71875 L 8.488281 6.808594 C 8.5625 6.976562 8.761719 7.054688 8.933594 6.976562 C 9.101562 6.902344 9.179688 6.703125 9.105469 6.53125 Z M 8.308594 4.75 "/>
<path style=" stroke:none;fill-rule:nonzero;fill:rgb(46.666667%,50.588235%,57.254902%);fill-opacity:1;" d="M 7.660156 7.976562 C 7.660156 8.164062 7.8125 8.316406 8 8.316406 L 9.160156 8.316406 L 9.980469 10.152344 C 10.035156 10.277344 10.160156 10.351562 10.289062 10.351562 C 10.335938 10.351562 10.382812 10.339844 10.425781 10.320312 C 10.597656 10.246094 10.671875 10.046875 10.597656 9.875 L 9.6875 7.839844 C 9.632812 7.71875 9.511719 7.640625 9.378906 7.640625 L 8 7.640625 C 7.8125 7.640625 7.660156 7.792969 7.660156 7.976562 Z M 7.660156 7.976562 "/>
<path style=" stroke:none;fill-rule:nonzero;fill:rgb(46.666667%,50.588235%,57.254902%);fill-opacity:1;" d="M 15.992188 5.464844 L 15.15625 1.113281 C 15.132812 0.988281 15.042969 0.890625 14.925781 0.851562 C 14.804688 0.816406 14.675781 0.847656 14.585938 0.9375 L 13.0625 2.460938 C 10.121094 -0.230469 5.539062 -0.152344 2.695312 2.695312 C 1.34375 4.042969 0.5625 5.839844 0.5 7.746094 C 0.492188 7.933594 0.640625 8.089844 0.828125 8.097656 C 0.832031 8.097656 0.835938 8.097656 0.839844 8.097656 C 1.019531 8.097656 1.167969 7.953125 1.175781 7.769531 C 1.234375 6.035156 1.941406 4.402344 3.171875 3.171875 C 5.835938 0.507812 10.164062 0.511719 12.828125 3.171875 C 12.957031 3.296875 13.179688 3.296875 13.304688 3.171875 L 14.613281 1.863281 L 15.234375 5.101562 L 12 4.480469 L 12.441406 4.039062 C 12.570312 3.90625 12.570312 3.691406 12.441406 3.5625 C 12.308594 3.429688 12.09375 3.429688 11.960938 3.5625 L 11.070312 4.453125 C 10.980469 4.539062 10.949219 4.671875 10.988281 4.789062 C 11.023438 4.910156 11.121094 5 11.246094 5.023438 L 15.597656 5.859375 C 15.707031 5.878906 15.820312 5.847656 15.902344 5.765625 C 15.980469 5.6875 16.015625 5.574219 15.992188 5.464844 Z M 15.992188 5.464844 "/>
<path style=" stroke:none;fill-rule:nonzero;fill:rgb(46.666667%,50.588235%,57.254902%);fill-opacity:1;" d="M 15.171875 7.902344 C 15.167969 7.902344 15.164062 7.902344 15.160156 7.902344 C 14.980469 7.902344 14.832031 8.046875 14.824219 8.230469 C 14.765625 9.964844 14.058594 11.597656 12.828125 12.828125 C 10.164062 15.492188 5.835938 15.488281 3.171875 12.828125 C 3.042969 12.703125 2.820312 12.703125 2.695312 12.828125 L 1.386719 14.136719 L 0.765625 10.898438 L 4 11.519531 L 3.558594 11.960938 C 3.429688 12.09375 3.429688 12.308594 3.558594 12.4375 C 3.691406 12.570312 3.90625 12.570312 4.039062 12.4375 L 4.929688 11.546875 C 5.019531 11.460938 5.050781 11.328125 5.011719 11.210938 C 4.976562 11.089844 4.878906 11 4.753906 10.976562 L 0.402344 10.140625 C 0.292969 10.121094 0.179688 10.15625 0.0976562 10.234375 C 0.0195312 10.3125 -0.015625 10.425781 0.0078125 10.535156 L 0.84375 14.890625 C 0.867188 15.011719 0.957031 15.113281 1.074219 15.148438 C 1.195312 15.183594 1.324219 15.152344 1.414062 15.0625 L 2.9375 13.539062 C 4.367188 14.847656 6.183594 15.5 8 15.5 C 9.921875 15.5 11.84375 14.769531 13.304688 13.304688 C 14.65625 11.957031 15.433594 10.160156 15.5 8.253906 C 15.503906 8.066406 15.359375 7.910156 15.171875 7.902344 Z M 15.171875 7.902344 "/>
</g>
</svg>
