<?xml version="1.0" encoding="UTF-8"?>
<svg xmlns="http://www.w3.org/2000/svg" xmlns:xlink="http://www.w3.org/1999/xlink" width="16pt" height="16pt" viewBox="0 0 16 16" version="1.1">
<g id="surface1">
<path style=" stroke:none;fill-rule:nonzero;fill:rgb(46.666667%,50.588235%,57.254902%);fill-opacity:1;" d="M 8 0 C 3.582031 0 0 3.582031 0 8 C 0 12.417969 3.582031 16 8 16 C 12.417969 16 16 12.417969 16 8 C 16 3.582031 12.417969 0 8 0 Z M 8 14.75 C 4.273438 14.75 1.25 11.726562 1.25 8 C 1.25 4.273438 4.273438 1.25 8 1.25 C 11.726562 1.25 14.75 4.273438 14.75 8 C 14.75 11.726562 11.726562 14.75 8 14.75 Z M 8 14.75 "/>
<path style=" stroke:none;fill-rule:nonzero;fill:rgb(46.666667%,50.588235%,57.254902%);fill-opacity:1;" d="M 12 7.5 L 5.800781 7.5 L 7 6.214844 L 6.332031 5.5 L 4 8 L 6.332031 10.5 L 7 9.785156 L 5.800781 8.5 L 12 8.5 Z M 12 7.5 "/>
</g>
</svg>
