<?xml version="1.0" encoding="UTF-8"?>
<svg xmlns="http://www.w3.org/2000/svg" xmlns:xlink="http://www.w3.org/1999/xlink" width="16pt" height="16pt" viewBox="0 0 16 16" version="1.1">
<g id="surface1">
<path style=" stroke:none;fill-rule:nonzero;fill:rgb(46.666667%,50.588235%,57.254902%);fill-opacity:1;" d="M 12 1 L 4 1 L 4 6.332031 L 12 6.332031 Z M 10.667969 5 L 5.332031 5 L 5.332031 2.332031 L 10.667969 2.332031 Z M 10.667969 5 "/>
<path style=" stroke:none;fill-rule:nonzero;fill:rgb(46.666667%,50.588235%,57.254902%);fill-opacity:1;" d="M 2.667969 9 L 7.332031 9 L 7.332031 10.332031 L 8.667969 10.332031 L 8.667969 9 L 13.332031 9 L 13.332031 10.332031 L 14.667969 10.332031 L 14.667969 7.667969 L 1.332031 7.667969 L 1.332031 10.332031 L 2.667969 10.332031 Z M 2.667969 9 "/>
<path style=" stroke:none;fill-rule:nonzero;fill:rgb(46.666667%,50.588235%,57.254902%);fill-opacity:1;" d="M 12 11 L 12 15 L 16 15 L 16 11 Z M 14.667969 13.667969 L 13.332031 13.667969 L 13.332031 12.332031 L 14.667969 12.332031 Z M 14.667969 13.667969 "/>
<path style=" stroke:none;fill-rule:nonzero;fill:rgb(46.666667%,50.588235%,57.254902%);fill-opacity:1;" d="M 6 15 L 10 15 L 10 11 L 6 11 Z M 7.332031 12.332031 L 8.667969 12.332031 L 8.667969 13.667969 L 7.332031 13.667969 Z M 7.332031 12.332031 "/>
<path style=" stroke:none;fill-rule:nonzero;fill:rgb(46.666667%,50.588235%,57.254902%);fill-opacity:1;" d="M 0 15 L 4 15 L 4 11 L 0 11 Z M 1.332031 12.332031 L 2.667969 12.332031 L 2.667969 13.667969 L 1.332031 13.667969 Z M 1.332031 12.332031 "/>
</g>
</svg>
