<?xml version="1.0" encoding="UTF-8"?>
<svg xmlns="http://www.w3.org/2000/svg" xmlns:xlink="http://www.w3.org/1999/xlink" width="16pt" height="16pt" viewBox="0 0 16 16" version="1.1">
<g id="surface1">
<path style=" stroke:none;fill-rule:nonzero;fill:rgb(46.666667%,50.588235%,57.254902%);fill-opacity:1;" d="M 15.136719 7.089844 C 15.039062 7.089844 14.941406 7.164062 14.941406 7.285156 L 14.941406 11.226562 C 14.941406 11.324219 15.015625 11.421875 15.136719 11.421875 C 15.261719 11.421875 15.335938 11.347656 15.335938 11.226562 L 15.335938 7.285156 C 15.335938 7.164062 15.238281 7.089844 15.136719 7.089844 Z M 15.136719 7.089844 "/>
<path style=" stroke:none;fill-rule:nonzero;fill:rgb(46.666667%,50.588235%,57.254902%);fill-opacity:1;" d="M 15.136719 5.613281 C 15.039062 5.613281 14.941406 5.6875 14.941406 5.808594 L 14.941406 6.300781 C 14.941406 6.398438 15.015625 6.5 15.136719 6.5 C 15.261719 6.5 15.335938 6.425781 15.335938 6.300781 L 15.335938 5.808594 C 15.335938 5.6875 15.238281 5.613281 15.136719 5.613281 Z M 15.136719 5.613281 "/>
<path style=" stroke:none;fill-rule:nonzero;fill:rgb(46.666667%,50.588235%,57.254902%);fill-opacity:1;" d="M 1.109375 2.265625 C 1.207031 2.265625 1.304688 2.191406 1.304688 2.066406 L 1.304688 0.34375 C 1.304688 0.246094 1.230469 0.148438 1.109375 0.148438 C 0.984375 0.148438 0.933594 0.269531 0.933594 0.371094 L 0.933594 2.09375 C 0.933594 2.191406 1.007812 2.265625 1.109375 2.265625 Z M 1.109375 2.265625 "/>
<path style=" stroke:none;fill-rule:nonzero;fill:rgb(46.666667%,50.588235%,57.254902%);fill-opacity:1;" d="M 1.109375 3.496094 C 1.207031 3.496094 1.304688 3.421875 1.304688 3.296875 L 1.304688 3.050781 C 1.304688 2.953125 1.230469 2.855469 1.109375 2.855469 C 0.984375 2.855469 0.910156 2.929688 0.910156 3.050781 L 0.910156 3.296875 C 0.933594 3.421875 1.007812 3.496094 1.109375 3.496094 Z M 1.109375 3.496094 "/>
<path style=" stroke:none;fill-rule:nonzero;fill:rgb(46.666667%,50.588235%,57.254902%);fill-opacity:1;" d="M 1.796875 11.199219 C 1.796875 11.101562 1.722656 11.003906 1.601562 11.003906 L 1.304688 11.003906 L 1.304688 10.683594 C 1.304688 10.585938 1.230469 10.484375 1.109375 10.484375 C 0.984375 10.484375 0.910156 10.558594 0.910156 10.683594 L 0.910156 11.003906 L 0.617188 11.003906 C 0.515625 11.003906 0.417969 11.078125 0.417969 11.199219 C 0.417969 11.324219 0.492188 11.398438 0.617188 11.398438 L 0.933594 11.398438 L 0.933594 11.71875 C 0.933594 11.816406 1.007812 11.914062 1.132812 11.914062 C 1.253906 11.914062 1.328125 11.839844 1.328125 11.71875 L 1.328125 11.398438 L 1.648438 11.398438 C 1.699219 11.398438 1.796875 11.296875 1.796875 11.199219 Z M 1.796875 11.199219 "/>
<path style=" stroke:none;fill-rule:nonzero;fill:rgb(46.666667%,50.588235%,57.254902%);fill-opacity:1;" d="M 14.398438 0.195312 L 4.800781 0.195312 C 3.890625 0.195312 3.125 0.933594 3.125 1.871094 L 3.125 3.59375 C 3.125 3.691406 3.199219 3.789062 3.324219 3.789062 C 3.445312 3.789062 3.519531 3.71875 3.519531 3.59375 L 3.519531 1.871094 C 3.519531 1.15625 4.109375 0.566406 4.824219 0.566406 L 5.070312 0.566406 C 5.785156 0.566406 6.375 1.15625 6.375 1.871094 L 6.375 3.347656 C 6.375 3.445312 6.449219 3.542969 6.574219 3.542969 L 7.3125 3.542969 C 7.410156 3.542969 7.507812 3.472656 7.507812 3.347656 C 7.507812 3.226562 7.433594 3.152344 7.3125 3.152344 L 6.746094 3.152344 L 6.746094 1.847656 C 6.746094 1.328125 6.5 0.863281 6.128906 0.542969 L 14.449219 0.542969 C 15.210938 0.542969 15.507812 1.207031 15.507812 1.847656 L 15.507812 3.152344 L 8.246094 3.152344 C 8.148438 3.152344 8.050781 3.226562 8.050781 3.347656 C 8.050781 3.472656 8.125 3.542969 8.246094 3.542969 L 13.734375 3.542969 L 13.734375 14.203125 C 13.734375 14.917969 13.144531 15.507812 12.429688 15.507812 C 11.71875 15.507812 11.125 14.917969 11.125 14.203125 L 11.125 12.726562 C 11.125 12.628906 11.050781 12.527344 10.929688 12.527344 L 3.519531 12.527344 L 3.519531 11.472656 C 3.519531 11.371094 3.445312 11.273438 3.324219 11.273438 C 3.199219 11.273438 3.125 11.347656 3.125 11.472656 L 3.125 12.527344 L 1.847656 12.527344 C 1.746094 12.527344 1.648438 12.601562 1.648438 12.726562 L 1.648438 14.203125 C 1.648438 15.113281 2.386719 15.875 3.324219 15.875 L 12.429688 15.875 C 13.339844 15.875 14.105469 15.136719 14.105469 14.203125 L 14.105469 3.519531 L 15.65625 3.519531 C 15.753906 3.519531 15.851562 3.445312 15.851562 3.324219 L 15.851562 1.847656 C 15.828125 0.835938 15.261719 0.195312 14.398438 0.195312 Z M 3.324219 15.457031 C 2.609375 15.457031 2.019531 14.867188 2.019531 14.152344 L 2.019531 12.847656 L 10.757812 12.847656 L 10.757812 14.152344 C 10.757812 14.671875 11.003906 15.136719 11.371094 15.457031 Z M 3.324219 15.457031 "/>
<path style=" stroke:none;fill-rule:nonzero;fill:rgb(46.666667%,50.588235%,57.254902%);fill-opacity:1;" d="M 7.507812 8.6875 L 12.921875 8.6875 C 13.023438 8.6875 13.121094 8.617188 13.121094 8.492188 C 13.121094 8.371094 13.046875 8.296875 12.921875 8.296875 L 7.507812 8.296875 C 7.410156 8.296875 7.3125 8.371094 7.3125 8.492188 C 7.3125 8.617188 7.410156 8.6875 7.507812 8.6875 Z M 7.507812 8.6875 "/>
<path style=" stroke:none;fill-rule:nonzero;fill:rgb(46.666667%,50.588235%,57.254902%);fill-opacity:1;" d="M 7.335938 7.261719 C 7.335938 7.359375 7.410156 7.457031 7.53125 7.457031 L 12.949219 7.457031 C 13.046875 7.457031 13.144531 7.382812 13.144531 7.261719 C 13.144531 7.136719 13.070312 7.066406 12.949219 7.066406 L 7.53125 7.066406 C 7.410156 7.089844 7.335938 7.164062 7.335938 7.261719 Z M 7.335938 7.261719 "/>
<path style=" stroke:none;fill-rule:nonzero;fill:rgb(46.666667%,50.588235%,57.254902%);fill-opacity:1;" d="M 9.96875 6.203125 L 12.921875 6.203125 C 13.023438 6.203125 13.121094 6.128906 13.121094 6.007812 C 13.121094 5.882812 13.046875 5.808594 12.921875 5.808594 L 9.96875 5.808594 C 9.871094 5.808594 9.773438 5.882812 9.773438 6.007812 C 9.773438 6.128906 9.871094 6.203125 9.96875 6.203125 Z M 9.96875 6.203125 "/>
<path style=" stroke:none;fill-rule:nonzero;fill:rgb(46.666667%,50.588235%,57.254902%);fill-opacity:1;" d="M 9.96875 4.972656 L 12.921875 4.972656 C 13.023438 4.972656 13.121094 4.898438 13.121094 4.773438 C 13.121094 4.652344 13.046875 4.578125 12.921875 4.578125 L 9.96875 4.578125 C 9.871094 4.578125 9.773438 4.652344 9.773438 4.773438 C 9.773438 4.898438 9.871094 4.972656 9.96875 4.972656 Z M 9.96875 4.972656 "/>
<path style=" stroke:none;fill-rule:nonzero;fill:rgb(46.666667%,50.588235%,57.254902%);fill-opacity:1;" d="M 7.507812 9.921875 L 12.921875 9.921875 C 13.023438 9.921875 13.121094 9.847656 13.121094 9.722656 C 13.121094 9.601562 13.046875 9.527344 12.921875 9.527344 L 7.507812 9.527344 C 7.410156 9.527344 7.3125 9.601562 7.3125 9.722656 C 7.3125 9.847656 7.410156 9.921875 7.507812 9.921875 Z M 7.507812 9.921875 "/>
<path style=" stroke:none;fill-rule:nonzero;fill:rgb(46.666667%,50.588235%,57.254902%);fill-opacity:1;" d="M 7.507812 11.152344 L 12.921875 11.152344 C 13.023438 11.152344 13.121094 11.078125 13.121094 10.953125 C 13.121094 10.832031 13.046875 10.757812 12.921875 10.757812 L 7.507812 10.757812 C 7.410156 10.757812 7.3125 10.832031 7.3125 10.953125 C 7.3125 11.078125 7.410156 11.152344 7.507812 11.152344 Z M 7.507812 11.152344 "/>
<path style=" stroke:none;fill-rule:nonzero;fill:rgb(46.666667%,50.588235%,57.254902%);fill-opacity:1;" d="M 3.324219 10.660156 C 4.183594 10.660156 4.972656 10.3125 5.539062 9.746094 C 6.105469 9.179688 6.449219 8.394531 6.449219 7.53125 C 6.449219 5.808594 5.046875 4.382812 3.296875 4.382812 C 1.550781 4.382812 0.195312 5.785156 0.195312 7.507812 C 0.195312 9.230469 1.601562 10.660156 3.324219 10.660156 Z M 5.414062 9.328125 L 3.789062 7.703125 L 6.105469 7.703125 C 6.03125 8.320312 5.785156 8.886719 5.414062 9.328125 Z M 6.078125 7.335938 L 3.519531 7.335938 L 3.519531 4.75 C 4.898438 4.847656 5.980469 5.933594 6.078125 7.335938 Z M 3.152344 4.75 L 3.152344 7.507812 C 3.152344 7.53125 3.152344 7.558594 3.175781 7.582031 C 3.175781 7.605469 3.199219 7.628906 3.226562 7.628906 L 5.167969 9.574219 C 4.675781 9.992188 4.035156 10.265625 3.347656 10.265625 C 1.820312 10.265625 0.566406 9.035156 0.566406 7.484375 C 0.566406 6.054688 1.699219 4.847656 3.152344 4.75 Z M 3.152344 4.75 "/>
<path style=" stroke:none;fill-rule:nonzero;fill:rgb(46.666667%,50.588235%,57.254902%);fill-opacity:1;" d="M 7.753906 3.496094 C 7.804688 3.496094 7.851562 3.472656 7.875 3.445312 C 7.902344 3.421875 7.925781 3.371094 7.925781 3.324219 C 7.925781 3.273438 7.902344 3.226562 7.875 3.199219 C 7.851562 3.175781 7.851562 3.175781 7.804688 3.152344 C 7.753906 3.125 7.703125 3.125 7.65625 3.152344 C 7.628906 3.152344 7.605469 3.175781 7.605469 3.199219 C 7.582031 3.226562 7.582031 3.25 7.558594 3.273438 C 7.558594 3.296875 7.53125 3.324219 7.53125 3.347656 C 7.53125 3.371094 7.53125 3.398438 7.53125 3.421875 C 7.53125 3.445312 7.558594 3.472656 7.582031 3.472656 C 7.65625 3.496094 7.703125 3.496094 7.753906 3.496094 Z M 7.753906 3.496094 "/>
</g>
</svg>
