<?xml version="1.0" encoding="UTF-8"?>
<svg xmlns="http://www.w3.org/2000/svg" xmlns:xlink="http://www.w3.org/1999/xlink" width="16pt" height="16pt" viewBox="0 0 16 16" version="1.1">
<g id="surface1">
<path style=" stroke:none;fill-rule:nonzero;fill:rgb(46.666667%,50.588235%,57.254902%);fill-opacity:1;" d="M 14.5 8 C 14.5 8.550781 14.050781 9 13.5 9 L 5.5 9 C 4.949219 9 4.5 8.550781 4.5 8 C 4.5 7.449219 4.949219 7 5.5 7 L 13.5 7 C 14.050781 7 14.5 7.449219 14.5 8 Z M 14.5 8 "/>
<path style=" stroke:none;fill-rule:nonzero;fill:rgb(46.666667%,50.588235%,57.254902%);fill-opacity:1;" d="M 14.5 3 C 14.5 3.550781 14.050781 4 13.5 4 L 5.5 4 C 4.949219 4 4.5 3.550781 4.5 3 C 4.5 2.449219 4.949219 2 5.5 2 L 13.5 2 C 14.050781 2 14.5 2.449219 14.5 3 Z M 14.5 3 "/>
<path style=" stroke:none;fill-rule:nonzero;fill:rgb(46.666667%,50.588235%,57.254902%);fill-opacity:1;" d="M 14.5 13 C 14.5 13.550781 14.050781 14 13.5 14 L 5.5 14 C 4.949219 14 4.5 13.550781 4.5 13 C 4.5 12.449219 4.949219 12 5.5 12 L 13.5 12 C 14.050781 12 14.5 12.449219 14.5 13 Z M 14.5 13 "/>
<path style=" stroke:none;fill-rule:nonzero;fill:rgb(46.666667%,50.588235%,57.254902%);fill-opacity:1;" d="M 1.5 3 C 1.5 3.550781 1.949219 4 2.5 4 C 3.050781 4 3.5 3.550781 3.5 3 C 3.5 2.449219 3.050781 2 2.5 2 C 1.949219 2 1.5 2.449219 1.5 3 Z M 1.5 3 "/>
<path style=" stroke:none;fill-rule:nonzero;fill:rgb(46.666667%,50.588235%,57.254902%);fill-opacity:1;" d="M 1.5 8 C 1.5 8.550781 1.949219 9 2.5 9 C 3.050781 9 3.5 8.550781 3.5 8 C 3.5 7.449219 3.050781 7 2.5 7 C 1.949219 7 1.5 7.449219 1.5 8 Z M 1.5 8 "/>
<path style=" stroke:none;fill-rule:nonzero;fill:rgb(46.666667%,50.588235%,57.254902%);fill-opacity:1;" d="M 1.5 13 C 1.5 13.550781 1.949219 14 2.5 14 C 3.050781 14 3.5 13.550781 3.5 13 C 3.5 12.449219 3.050781 12 2.5 12 C 1.949219 12 1.5 12.449219 1.5 13 Z M 1.5 13 "/>
</g>
</svg>
