<svg width="12" height="14" viewBox="0 0 12 14" fill="none" xmlns="http://www.w3.org/2000/svg">
<path fill-rule="evenodd" clip-rule="evenodd" d="M4.12209 12.4733L2.5 11.5L1 12.4L0.757248 12.5457C0.423986 12.7456 0 12.5056 0 12.1169V11.8338V1.5C0 0.671573 0.671573 0 1.5 0H8.5C9.32843 0 10 0.671573 10 1.5V5.75777C11.206 6.56504 12 7.93979 12 9.5C12 11.9853 9.98528 14 7.5 14C6.15439 14 4.94673 13.4094 4.12209 12.4733ZM9 1.5V5.25606C8.53083 5.09023 8.02595 5 7.5 5C6.42835 5 5.4442 5.3746 4.67133 6H3.5C3.22386 6 3 6.22386 3 6.5C3 6.77614 3.22386 7 3.5 7H3.75777C3.27914 7.71505 3 8.57493 3 9.5C3 9.92905 3.06004 10.3441 3.17219 10.7371L3.0145 10.6425L2.75725 10.4882C2.59891 10.3932 2.40109 10.3932 2.24275 10.4882L1.9855 10.6425L1 11.2338V1.5C1 1.22386 1.22386 1 1.5 1H8.5C8.77614 1 9 1.22386 9 1.5ZM3 3.5C3 3.22386 3.22386 3 3.5 3H6.5C6.77614 3 7 3.22386 7 3.5C7 3.77614 6.77614 4 6.5 4H3.5C3.22386 4 3 3.77614 3 3.5ZM11 9.5C11 11.433 9.433 13 7.5 13C5.567 13 4 11.433 4 9.5C4 7.567 5.567 6 7.5 6C9.433 6 11 7.567 11 9.5ZM9.85355 8.85355C10.0488 8.65829 10.0488 8.34171 9.85355 8.14645C9.65829 7.95118 9.34171 7.95118 9.14645 8.14645L7 10.2929L5.85355 9.14645C5.65829 8.95118 5.34171 8.95118 5.14645 9.14645C4.95118 9.34171 4.95118 9.65829 5.14645 9.85355L6.64645 11.3536C6.84171 11.5488 7.15829 11.5488 7.35355 11.3536L9.85355 8.85355Z" fill="#fff"/>
</svg>
