<?xml version="1.0" encoding="UTF-8"?>
<svg xmlns="http://www.w3.org/2000/svg" xmlns:xlink="http://www.w3.org/1999/xlink" width="16pt" height="16pt" viewBox="0 0 16 16" version="1.1">
<g id="surface1">
<path style=" stroke:none;fill-rule:nonzero;fill:rgb(46.666667%,50.588235%,57.254902%);fill-opacity:1;" d="M 5.332031 8.667969 L 10.667969 8.667969 L 10.667969 7.332031 L 5.332031 7.332031 Z M 5.332031 6 L 10.667969 6 L 10.667969 4.667969 L 5.332031 4.667969 Z M 8.667969 11.332031 L 10.667969 11.332031 L 10.667969 10 L 8.667969 10 Z M 12.738281 1.332031 C 12.320312 1.335938 11.914062 1.46875 11.574219 1.714844 C 11.328125 1.910156 10.984375 1.910156 10.738281 1.714844 C 10.042969 1.210938 9.105469 1.210938 8.40625 1.714844 C 8.289062 1.804688 8.148438 1.855469 8 1.867188 C 7.855469 1.859375 7.714844 1.808594 7.601562 1.71875 C 7.257812 1.46875 6.847656 1.335938 6.425781 1.332031 C 6.007812 1.335938 5.597656 1.46875 5.261719 1.714844 C 5.015625 1.910156 4.671875 1.910156 4.425781 1.714844 C 4.085938 1.46875 3.679688 1.335938 3.261719 1.332031 L 2.667969 1.332031 L 2.667969 14.667969 L 3.261719 14.667969 C 3.679688 14.664062 4.085938 14.53125 4.425781 14.285156 C 4.671875 14.089844 5.015625 14.089844 5.261719 14.285156 C 5.957031 14.789062 6.894531 14.789062 7.59375 14.285156 C 7.710938 14.195312 7.851562 14.144531 8 14.132812 C 8.144531 14.140625 8.285156 14.191406 8.398438 14.28125 C 8.738281 14.527344 9.140625 14.660156 9.558594 14.667969 C 9.980469 14.664062 10.386719 14.53125 10.726562 14.285156 C 10.96875 14.089844 11.316406 14.089844 11.558594 14.285156 C 11.902344 14.53125 12.308594 14.664062 12.726562 14.667969 L 13.332031 14.667969 L 13.332031 1.332031 Z M 12 13 C 11.347656 12.699219 10.585938 12.769531 10 13.1875 C 9.878906 13.277344 9.734375 13.328125 9.585938 13.332031 C 9.441406 13.328125 9.300781 13.277344 9.1875 13.1875 C 8.84375 12.933594 8.425781 12.800781 8 12.800781 C 7.578125 12.808594 7.167969 12.941406 6.828125 13.1875 C 6.585938 13.378906 6.242188 13.378906 6 13.1875 C 5.414062 12.769531 4.652344 12.699219 4 13 L 4 3 C 4.261719 3.128906 4.546875 3.195312 4.839844 3.199219 C 5.257812 3.191406 5.660156 3.054688 6 2.8125 C 6.125 2.71875 6.273438 2.667969 6.425781 2.667969 C 6.574219 2.671875 6.714844 2.722656 6.828125 2.8125 C 7.167969 3.0625 7.578125 3.199219 8 3.199219 C 8.421875 3.191406 8.832031 3.058594 9.171875 2.8125 C 9.414062 2.621094 9.757812 2.621094 10 2.8125 C 10.34375 3.058594 10.753906 3.191406 11.171875 3.199219 C 11.460938 3.195312 11.742188 3.125 12 3 Z M 12 13 "/>
</g>
</svg>
